<svg id="Layer_1" data-name="Layer 1" xmlns="http://www.w3.org/2000/svg" viewBox="0 0 531.82 257.7"><defs><style>.cls-1{fill:#315659;}.cls-2{fill:#128595;}</style></defs><path class="cls-1" d="M268.89,93.38h7.55v26.47H292.8V126H268.89Z"/><path class="cls-1" d="M306.76,122.7q-3.9-3.87-3.89-11V93.38h7.55v18q0,8.76,7.27,8.77A6.82,6.82,0,0,0,323.1,118q1.86-2.12,1.86-6.64v-18h7.46v18.27q0,7.18-3.89,11t-10.89,3.87Q310.65,126.57,306.76,122.7Z"/><path class="cls-1" d="M349.64,125.52a17.59,17.59,0,0,1-5.8-2.73l2.57-5.69a17.17,17.17,0,0,0,5,2.47,18.54,18.54,0,0,0,5.78.94,9.22,9.22,0,0,0,4.76-1,2.9,2.9,0,0,0,1.54-2.54,2.43,2.43,0,0,0-.91-1.93,6.87,6.87,0,0,0-2.33-1.24c-1-.31-2.23-.65-3.85-1a52.29,52.29,0,0,1-6.1-1.78,10,10,0,0,1-4.09-2.84,7.7,7.7,0,0,1-1.7-5.22A9.12,9.12,0,0,1,346,97.83a10.34,10.34,0,0,1,4.64-3.66,19,19,0,0,1,7.57-1.35,25.42,25.42,0,0,1,6.11.74,17.87,17.87,0,0,1,5.22,2.15l-2.33,5.73a18.17,18.17,0,0,0-9-2.56,8.54,8.54,0,0,0-4.69,1,3.14,3.14,0,0,0-1.51,2.7,2.64,2.64,0,0,0,1.75,2.5,27.66,27.66,0,0,0,5.33,1.61,53.35,53.35,0,0,1,6.11,1.77,10.07,10.07,0,0,1,4.08,2.8,7.51,7.51,0,0,1,1.7,5.17,8.87,8.87,0,0,1-1.56,5.1,10.52,10.52,0,0,1-4.69,3.67,19.26,19.26,0,0,1-7.59,1.35A26.73,26.73,0,0,1,349.64,125.52Z"/><path class="cls-1" d="M389.31,124.38a16.21,16.21,0,0,1-6.38-6,17.35,17.35,0,0,1,0-17.3,16.19,16.19,0,0,1,6.38-6,20.21,20.21,0,0,1,18.3,0,16.64,16.64,0,0,1,0,29.37,20.21,20.21,0,0,1-18.3,0Zm14.38-5.58a9.37,9.37,0,0,0,3.66-3.7,11.65,11.65,0,0,0,0-10.81,9.4,9.4,0,0,0-3.66-3.71,10.91,10.91,0,0,0-10.44,0,9.53,9.53,0,0,0-3.66,3.71,11.65,11.65,0,0,0,0,10.81,9.5,9.5,0,0,0,3.66,3.7,10.84,10.84,0,0,0,10.44,0Z"/><path class="cls-2" d="M268.81,141H278a13.48,13.48,0,0,1,6.44,1.5,10.88,10.88,0,0,1,4.37,4.13,12.34,12.34,0,0,1,0,12,10.88,10.88,0,0,1-4.37,4.13,13.48,13.48,0,0,1-6.44,1.5h-9.2Zm9.07,21.74a12.2,12.2,0,0,0,5.69-1.28,9.2,9.2,0,0,0,3.79-3.57,11.12,11.12,0,0,0,0-10.51,9.2,9.2,0,0,0-3.79-3.57,12.2,12.2,0,0,0-5.69-1.28H270.5v20.21Z"/><path class="cls-2" d="M317,162.74v1.53H300.92V141h15.55v1.53H302.61v9.17H315v1.5h-12.4v9.54Z"/><path class="cls-2" d="M329.06,163.55a9.29,9.29,0,0,1-3.61-2.27l.76-1.27a9.09,9.09,0,0,0,3.31,2.12,11.94,11.94,0,0,0,4.37.81,8.28,8.28,0,0,0,5-1.27,3.91,3.91,0,0,0,1.7-3.29,3.44,3.44,0,0,0-.9-2.49,5.91,5.91,0,0,0-2.23-1.43,31.63,31.63,0,0,0-3.59-1,34.81,34.81,0,0,1-4.1-1.23,6.58,6.58,0,0,1-2.63-1.84,4.93,4.93,0,0,1-1.08-3.34,5.67,5.67,0,0,1,.9-3.11,6.16,6.16,0,0,1,2.74-2.25,11.26,11.26,0,0,1,4.6-.83,12.85,12.85,0,0,1,3.79.57,11.24,11.24,0,0,1,3.23,1.53l-.63,1.36a10.78,10.78,0,0,0-3.08-1.46,11.66,11.66,0,0,0-3.31-.5,7.78,7.78,0,0,0-4.88,1.3,4,4,0,0,0-1.66,3.35,3.43,3.43,0,0,0,.89,2.5,6.12,6.12,0,0,0,2.23,1.43,36.22,36.22,0,0,0,3.62,1.06,33.43,33.43,0,0,1,4.09,1.23,6.72,6.72,0,0,1,2.61,1.81,4.75,4.75,0,0,1,1.08,3.28,5.51,5.51,0,0,1-.91,3.09,6.21,6.21,0,0,1-2.81,2.22,11.45,11.45,0,0,1-4.65.83A13.48,13.48,0,0,1,329.06,163.55Z"/><path class="cls-2" d="M352.71,141h1.69v23.27h-1.69Z"/><path class="cls-2" d="M383.79,152.73h1.63v8.71a10.12,10.12,0,0,1-3.71,2.23,13.79,13.79,0,0,1-4.6.76,12.7,12.7,0,0,1-6.24-1.52,11.24,11.24,0,0,1-4.35-4.22,12.37,12.37,0,0,1,0-12.1,11.2,11.2,0,0,1,4.35-4.23,12.88,12.88,0,0,1,6.27-1.53,13.22,13.22,0,0,1,4.7.82,10,10,0,0,1,3.68,2.38l-1.07,1.13a8.78,8.78,0,0,0-3.27-2.12,11.88,11.88,0,0,0-4-.64,11,11,0,0,0-5.4,1.33A9.64,9.64,0,0,0,368,147.4a10.22,10.22,0,0,0-1.37,5.24,10,10,0,0,0,5.16,8.89,10.84,10.84,0,0,0,5.38,1.34,10.22,10.22,0,0,0,6.62-2.12Z"/><path class="cls-2" d="M416.46,141v23.27h-1.4l-15.85-20.21v20.21h-1.69V141h1.42l15.83,20.21V141Z"/><path class="cls-2" d="M144.06,93.3h31.08a44.54,44.54,0,0,1,20.21,4.42,32.74,32.74,0,0,1,13.71,12.49,35.38,35.38,0,0,1,4.88,18.64,35.33,35.33,0,0,1-4.88,18.64A32.74,32.74,0,0,1,195.35,160a44.54,44.54,0,0,1-20.21,4.42H144.06Zm30.47,59.93a30.14,30.14,0,0,0,13.76-3,21.38,21.38,0,0,0,9.14-8.53,27.4,27.4,0,0,0,0-25.7,21.44,21.44,0,0,0-9.14-8.53,30.14,30.14,0,0,0-13.76-3H157.26v48.76Z"/><path class="cls-1" d="M144.06,93.3h13.2v59.93h19.82V164.4h-33Z"/><path class="cls-1" d="M238.8,190.57H115.36V67.13H238.8Zm-113-10.49H228.31V77.62H125.85Z"/></svg>